<svg xmlns="http://www.w3.org/2000/svg" xmlns:xlink="http://www.w3.org/1999/xlink" version="1.1" viewBox="-1520.26 -2771.81 3040.52 2775.81">
<path style="stroke:rgb(0,0,0);stroke-width:5;fill:none" d="M0.00 0.00 M0.00 0.00 L0.00 -1000.00 M0.00 -1000.00 L-360.89 -1599.80 M-360.89 -1599.80 L-793.81 -1829.32 M-793.81 -1829.32 L-1136.31 -1810.75 M-1136.31 -1810.75 L-1335.03 -1676.01 M-1335.03 -1676.01 L-1405.60 -1523.47 M-1335.03 -1676.01 L-1502.86 -1666.91 M-1136.31 -1810.75 L-1348.44 -1923.22 M-1348.44 -1923.22 L-1516.26 -1914.12 M-1348.44 -1923.22 L-1435.09 -2067.23 M-793.81 -1829.32 L-970.64 -2123.22 M-970.64 -2123.22 L-1182.77 -2235.69 M-1182.77 -2235.69 L-1350.60 -2226.59 M-1182.77 -2235.69 L-1269.42 -2379.70 M-970.64 -2123.22 L-970.64 -2363.32 M-970.64 -2363.32 L-1057.29 -2507.33 M-970.64 -2363.32 L-883.99 -2507.33 M-360.89 -1599.80 L-360.89 -2089.80 M-360.89 -2089.80 L-537.72 -2383.70 M-537.72 -2383.70 L-749.85 -2496.17 M-749.85 -2496.17 L-917.68 -2487.07 M-749.85 -2496.17 L-836.50 -2640.18 M-537.72 -2383.70 L-537.72 -2623.80 M-537.72 -2623.80 L-624.37 -2767.81 M-537.72 -2623.80 L-451.07 -2767.81 M-360.89 -2089.80 L-184.05 -2383.70 M-184.05 -2383.70 L-184.05 -2623.80 M-184.05 -2623.80 L-270.70 -2767.81 M-184.05 -2623.80 L-97.40 -2767.81 M-184.05 -2383.70 L28.08 -2496.17 M28.08 -2496.17 L114.73 -2640.18 M28.08 -2496.17 L195.90 -2487.07 M0.00 -1000.00 L360.89 -1599.80 M360.89 -1599.80 L360.89 -2089.80 M360.89 -2089.80 L184.05 -2383.70 M184.05 -2383.70 L-28.08 -2496.17 M-28.08 -2496.17 L-195.90 -2487.07 M-28.08 -2496.17 L-114.73 -2640.18 M184.05 -2383.70 L184.05 -2623.80 M184.05 -2623.80 L97.40 -2767.81 M184.05 -2623.80 L270.70 -2767.81 M360.89 -2089.80 L537.72 -2383.70 M537.72 -2383.70 L537.72 -2623.80 M537.72 -2623.80 L451.07 -2767.81 M537.72 -2623.80 L624.37 -2767.81 M537.72 -2383.70 L749.85 -2496.17 M749.85 -2496.17 L836.50 -2640.18 M749.85 -2496.17 L917.68 -2487.07 M360.89 -1599.80 L793.81 -1829.32 M793.81 -1829.32 L970.64 -2123.22 M970.64 -2123.22 L970.64 -2363.32 M970.64 -2363.32 L883.99 -2507.33 M970.64 -2363.32 L1057.29 -2507.33 M970.64 -2123.22 L1182.77 -2235.69 M1182.77 -2235.69 L1269.42 -2379.70 M1182.77 -2235.69 L1350.60 -2226.59 M793.81 -1829.32 L1136.31 -1810.75 M1136.31 -1810.75 L1348.44 -1923.22 M1348.44 -1923.22 L1435.09 -2067.23 M1348.44 -1923.22 L1516.26 -1914.12 M1136.31 -1810.75 L1335.03 -1676.01 M1335.03 -1676.01 L1502.86 -1666.91 M1335.03 -1676.01 L1405.60 -1523.47" />
</svg>

