<svg xmlns="http://www.w3.org/2000/svg" xmlns:xlink="http://www.w3.org/1999/xlink" version="1.1" viewBox="-1140.31 -2387.70 2280.61 2391.70">
<path style="stroke:rgb(0,0,0);stroke-width:5;fill:none" d="M0.00 0.00 M0.00 0.00 L0.00 -1000.00 M0.00 -1000.00 L-360.89 -1599.80 M-360.89 -1599.80 L-793.81 -1829.32 M-793.81 -1829.32 L-1136.31 -1810.75 M-793.81 -1829.32 L-970.64 -2123.22 M-360.89 -1599.80 L-360.89 -2089.80 M-360.89 -2089.80 L-537.72 -2383.70 M-360.89 -2089.80 L-184.05 -2383.70 M0.00 -1000.00 L360.89 -1599.80 M360.89 -1599.80 L360.89 -2089.80 M360.89 -2089.80 L184.05 -2383.70 M360.89 -2089.80 L537.72 -2383.70 M360.89 -1599.80 L793.81 -1829.32 M793.81 -1829.32 L970.64 -2123.22 M793.81 -1829.32 L1136.31 -1810.75" />
</svg>

