<svg xmlns="http://www.w3.org/2000/svg" xmlns:xlink="http://www.w3.org/1999/xlink" version="1.1" viewBox="-1797.67 -3052.25 3595.33 3056.25">
<path style="stroke:rgb(0,0,0);stroke-width:4;fill:none" d="M0.00 0.00 M0.00 0.00 L0.00 -1000.00 M0.00 -1000.00 L-360.89 -1599.80 M-360.89 -1599.80 L-793.81 -1829.32 M-793.81 -1829.32 L-1136.31 -1810.75 M-1136.31 -1810.75 L-1335.03 -1676.01 M-1335.03 -1676.01 L-1405.60 -1523.47 M-1405.60 -1523.47 L-1392.88 -1406.51 M-1392.88 -1406.51 L-1343.05 -1340.95 M-1343.05 -1340.95 L-1289.49 -1319.61 M-1289.49 -1319.61 L-1249.67 -1326.14 M-1289.49 -1319.61 L-1265.07 -1287.49 M-1343.05 -1340.95 L-1336.81 -1283.64 M-1336.81 -1283.64 L-1312.39 -1251.52 M-1336.81 -1283.64 L-1353.76 -1247.02 M-1392.88 -1406.51 L-1427.46 -1331.77 M-1427.46 -1331.77 L-1421.23 -1274.46 M-1421.23 -1274.46 L-1396.81 -1242.34 M-1421.23 -1274.46 L-1438.18 -1237.84 M-1427.46 -1331.77 L-1475.18 -1299.42 M-1475.18 -1299.42 L-1492.12 -1262.80 M-1475.18 -1299.42 L-1515.47 -1297.24 M-1405.60 -1523.47 L-1502.98 -1457.45 M-1502.98 -1457.45 L-1537.56 -1382.71 M-1537.56 -1382.71 L-1531.33 -1325.40 M-1531.33 -1325.40 L-1506.91 -1293.27 M-1531.33 -1325.40 L-1548.27 -1288.77 M-1537.56 -1382.71 L-1585.28 -1350.36 M-1585.28 -1350.36 L-1602.22 -1313.73 M-1585.28 -1350.36 L-1625.57 -1348.17 M-1502.98 -1457.45 L-1585.21 -1452.99 M-1585.21 -1452.99 L-1632.93 -1420.64 M-1632.93 -1420.64 L-1649.87 -1384.02 M-1632.93 -1420.64 L-1673.22 -1418.46 M-1585.21 -1452.99 L-1636.15 -1479.99 M-1636.15 -1479.99 L-1676.44 -1477.81 M-1636.15 -1479.99 L-1656.95 -1514.57 M-1335.03 -1676.01 L-1502.86 -1666.91 M-1502.86 -1666.91 L-1600.23 -1600.89 M-1600.23 -1600.89 L-1634.81 -1526.14 M-1634.81 -1526.14 L-1628.58 -1468.83 M-1628.58 -1468.83 L-1604.16 -1436.71 M-1628.58 -1468.83 L-1645.52 -1432.21 M-1634.81 -1526.14 L-1682.53 -1493.79 M-1682.53 -1493.79 L-1699.47 -1457.17 M-1682.53 -1493.79 L-1722.82 -1491.61 M-1600.23 -1600.89 L-1682.47 -1596.43 M-1682.47 -1596.43 L-1730.18 -1564.08 M-1730.18 -1564.08 L-1747.13 -1527.45 M-1730.18 -1564.08 L-1770.48 -1561.89 M-1682.47 -1596.43 L-1733.40 -1623.43 M-1733.40 -1623.43 L-1773.69 -1621.25 M-1733.40 -1623.43 L-1754.20 -1658.01 M-1502.86 -1666.91 L-1606.80 -1722.02 M-1606.80 -1722.02 L-1689.04 -1717.56 M-1689.04 -1717.56 L-1736.75 -1685.21 M-1736.75 -1685.21 L-1753.69 -1648.58 M-1736.75 -1685.21 L-1777.04 -1683.02 M-1689.04 -1717.56 L-1739.97 -1744.56 M-1739.97 -1744.56 L-1780.26 -1742.38 M-1739.97 -1744.56 L-1760.77 -1779.14 M-1606.80 -1722.02 L-1649.26 -1792.58 M-1649.26 -1792.58 L-1700.19 -1819.59 M-1700.19 -1819.59 L-1740.49 -1817.40 M-1700.19 -1819.59 L-1721.00 -1854.16 M-1649.26 -1792.58 L-1649.26 -1850.23 M-1649.26 -1850.23 L-1670.06 -1884.81 M-1649.26 -1850.23 L-1628.46 -1884.81 M-1136.31 -1810.75 L-1348.44 -1923.22 M-1348.44 -1923.22 L-1516.26 -1914.12 M-1516.26 -1914.12 L-1613.64 -1848.09 M-1613.64 -1848.09 L-1648.22 -1773.35 M-1648.22 -1773.35 L-1641.98 -1716.04 M-1641.98 -1716.04 L-1617.56 -1683.92 M-1641.98 -1716.04 L-1658.93 -1679.42 M-1648.22 -1773.35 L-1695.93 -1741.00 M-1695.93 -1741.00 L-1712.88 -1704.38 M-1695.93 -1741.00 L-1736.23 -1738.81 M-1613.64 -1848.09 L-1695.87 -1843.63 M-1695.87 -1843.63 L-1743.59 -1811.28 M-1743.59 -1811.28 L-1760.53 -1774.66 M-1743.59 -1811.28 L-1783.88 -1809.10 M-1695.87 -1843.63 L-1746.80 -1870.64 M-1746.80 -1870.64 L-1787.10 -1868.45 M-1746.80 -1870.64 L-1767.61 -1905.21 M-1516.26 -1914.12 L-1620.20 -1969.22 M-1620.20 -1969.22 L-1702.44 -1964.77 M-1702.44 -1964.77 L-1750.15 -1932.41 M-1750.15 -1932.41 L-1767.10 -1895.79 M-1750.15 -1932.41 L-1790.45 -1930.23 M-1702.44 -1964.77 L-1753.37 -1991.77 M-1753.37 -1991.77 L-1793.67 -1989.58 M-1753.37 -1991.77 L-1774.18 -2026.35 M-1620.20 -1969.22 L-1662.66 -2039.79 M-1662.66 -2039.79 L-1713.60 -2066.79 M-1713.60 -2066.79 L-1753.89 -2064.61 M-1713.60 -2066.79 L-1734.40 -2101.37 M-1662.66 -2039.79 L-1662.66 -2097.44 M-1662.66 -2097.44 L-1683.47 -2132.02 M-1662.66 -2097.44 L-1641.86 -2132.02 M-1348.44 -1923.22 L-1435.09 -2067.23 M-1435.09 -2067.23 L-1539.03 -2122.34 M-1539.03 -2122.34 L-1621.26 -2117.88 M-1621.26 -2117.88 L-1668.98 -2085.53 M-1668.98 -2085.53 L-1685.92 -2048.90 M-1668.98 -2085.53 L-1709.27 -2083.34 M-1621.26 -2117.88 L-1672.20 -2144.88 M-1672.20 -2144.88 L-1712.49 -2142.69 M-1672.20 -2144.88 L-1693.00 -2179.46 M-1539.03 -2122.34 L-1581.49 -2192.90 M-1581.49 -2192.90 L-1632.42 -2219.90 M-1632.42 -2219.90 L-1672.72 -2217.72 M-1632.42 -2219.90 L-1653.23 -2254.48 M-1581.49 -2192.90 L-1581.49 -2250.55 M-1581.49 -2250.55 L-1602.29 -2285.13 M-1581.49 -2250.55 L-1560.68 -2285.13 M-1435.09 -2067.23 L-1435.09 -2184.88 M-1435.09 -2184.88 L-1477.54 -2255.44 M-1477.54 -2255.44 L-1528.48 -2282.45 M-1528.48 -2282.45 L-1568.77 -2280.26 M-1528.48 -2282.45 L-1549.28 -2317.02 M-1477.54 -2255.44 L-1477.54 -2313.09 M-1477.54 -2313.09 L-1498.35 -2347.67 M-1477.54 -2313.09 L-1456.74 -2347.67 M-1435.09 -2184.88 L-1392.63 -2255.44 M-1392.63 -2255.44 L-1392.63 -2313.09 M-1392.63 -2313.09 L-1413.43 -2347.67 M-1392.63 -2313.09 L-1371.82 -2347.67 M-1392.63 -2255.44 L-1341.70 -2282.45 M-1341.70 -2282.45 L-1320.89 -2317.02 M-1341.70 -2282.45 L-1301.40 -2280.26 M-793.81 -1829.32 L-970.64 -2123.22 M-970.64 -2123.22 L-1182.77 -2235.69 M-1182.77 -2235.69 L-1350.60 -2226.59 M-1350.60 -2226.59 L-1447.98 -2160.56 M-1447.98 -2160.56 L-1482.55 -2085.82 M-1482.55 -2085.82 L-1476.32 -2028.51 M-1476.32 -2028.51 L-1451.90 -1996.39 M-1476.32 -2028.51 L-1493.27 -1991.89 M-1482.55 -2085.82 L-1530.27 -2053.47 M-1530.27 -2053.47 L-1547.21 -2016.85 M-1530.27 -2053.47 L-1570.56 -2051.29 M-1447.98 -2160.56 L-1530.21 -2156.11 M-1530.21 -2156.11 L-1577.92 -2123.75 M-1577.92 -2123.75 L-1594.87 -2087.13 M-1577.92 -2123.75 L-1618.22 -2121.57 M-1530.21 -2156.11 L-1581.14 -2183.11 M-1581.14 -2183.11 L-1621.44 -2180.92 M-1581.14 -2183.11 L-1601.95 -2217.69 M-1350.60 -2226.59 L-1454.54 -2281.70 M-1454.54 -2281.70 L-1536.78 -2277.24 M-1536.78 -2277.24 L-1584.49 -2244.89 M-1584.49 -2244.89 L-1601.43 -2208.26 M-1584.49 -2244.89 L-1624.79 -2242.70 M-1536.78 -2277.24 L-1587.71 -2304.24 M-1587.71 -2304.24 L-1628.00 -2302.06 M-1587.71 -2304.24 L-1608.51 -2338.82 M-1454.54 -2281.70 L-1497.00 -2352.26 M-1497.00 -2352.26 L-1547.93 -2379.26 M-1547.93 -2379.26 L-1588.23 -2377.08 M-1547.93 -2379.26 L-1568.74 -2413.84 M-1497.00 -2352.26 L-1497.00 -2409.91 M-1497.00 -2409.91 L-1517.81 -2444.49 M-1497.00 -2409.91 L-1476.20 -2444.49 M-1182.77 -2235.69 L-1269.42 -2379.70 M-1269.42 -2379.70 L-1373.37 -2434.81 M-1373.37 -2434.81 L-1455.60 -2430.35 M-1455.60 -2430.35 L-1503.32 -2398.00 M-1503.32 -2398.00 L-1520.26 -2361.37 M-1503.32 -2398.00 L-1543.61 -2395.81 M-1455.60 -2430.35 L-1506.53 -2457.35 M-1506.53 -2457.35 L-1546.83 -2455.17 M-1506.53 -2457.35 L-1527.34 -2491.93 M-1373.37 -2434.81 L-1415.83 -2505.37 M-1415.83 -2505.37 L-1466.76 -2532.38 M-1466.76 -2532.38 L-1507.05 -2530.19 M-1466.76 -2532.38 L-1487.56 -2566.95 M-1415.83 -2505.37 L-1415.83 -2563.02 M-1415.83 -2563.02 L-1436.63 -2597.60 M-1415.83 -2563.02 L-1395.02 -2597.60 M-1269.42 -2379.70 L-1269.42 -2497.35 M-1269.42 -2497.35 L-1311.88 -2567.91 M-1311.88 -2567.91 L-1362.81 -2594.92 M-1362.81 -2594.92 L-1403.11 -2592.73 M-1362.81 -2594.92 L-1383.62 -2629.49 M-1311.88 -2567.91 L-1311.88 -2625.56 M-1311.88 -2625.56 L-1332.69 -2660.14 M-1311.88 -2625.56 L-1291.08 -2660.14 M-1269.42 -2497.35 L-1226.97 -2567.91 M-1226.97 -2567.91 L-1226.97 -2625.56 M-1226.97 -2625.56 L-1247.77 -2660.14 M-1226.97 -2625.56 L-1206.16 -2660.14 M-1226.97 -2567.91 L-1176.03 -2594.92 M-1176.03 -2594.92 L-1155.23 -2629.49 M-1176.03 -2594.92 L-1135.74 -2592.73 M-970.64 -2123.22 L-970.64 -2363.32 M-970.64 -2363.32 L-1057.29 -2507.33 M-1057.29 -2507.33 L-1161.24 -2562.44 M-1161.24 -2562.44 L-1243.47 -2557.98 M-1243.47 -2557.98 L-1291.19 -2525.63 M-1291.19 -2525.63 L-1308.13 -2489.01 M-1291.19 -2525.63 L-1331.48 -2523.45 M-1243.47 -2557.98 L-1294.40 -2584.99 M-1294.40 -2584.99 L-1334.70 -2582.80 M-1294.40 -2584.99 L-1315.21 -2619.56 M-1161.24 -2562.44 L-1203.70 -2633.01 M-1203.70 -2633.01 L-1254.63 -2660.01 M-1254.63 -2660.01 L-1294.92 -2657.83 M-1254.63 -2660.01 L-1275.43 -2694.59 M-1203.70 -2633.01 L-1203.70 -2690.66 M-1203.70 -2690.66 L-1224.50 -2725.23 M-1203.70 -2690.66 L-1182.89 -2725.23 M-1057.29 -2507.33 L-1057.29 -2624.98 M-1057.29 -2624.98 L-1099.75 -2695.55 M-1099.75 -2695.55 L-1150.68 -2722.55 M-1150.68 -2722.55 L-1190.98 -2720.37 M-1150.68 -2722.55 L-1171.49 -2757.13 M-1099.75 -2695.55 L-1099.75 -2753.20 M-1099.75 -2753.20 L-1120.56 -2787.77 M-1099.75 -2753.20 L-1078.95 -2787.77 M-1057.29 -2624.98 L-1014.83 -2695.55 M-1014.83 -2695.55 L-1014.83 -2753.20 M-1014.83 -2753.20 L-1035.64 -2787.77 M-1014.83 -2753.20 L-994.03 -2787.77 M-1014.83 -2695.55 L-963.90 -2722.55 M-963.90 -2722.55 L-943.10 -2757.13 M-963.90 -2722.55 L-923.61 -2720.37 M-970.64 -2363.32 L-883.99 -2507.33 M-883.99 -2507.33 L-883.99 -2624.98 M-883.99 -2624.98 L-926.45 -2695.55 M-926.45 -2695.55 L-977.39 -2722.55 M-977.39 -2722.55 L-1017.68 -2720.37 M-977.39 -2722.55 L-998.19 -2757.13 M-926.45 -2695.55 L-926.45 -2753.20 M-926.45 -2753.20 L-947.26 -2787.77 M-926.45 -2753.20 L-905.65 -2787.77 M-883.99 -2624.98 L-841.54 -2695.55 M-841.54 -2695.55 L-841.54 -2753.20 M-841.54 -2753.20 L-862.34 -2787.77 M-841.54 -2753.20 L-820.73 -2787.77 M-841.54 -2695.55 L-790.60 -2722.55 M-790.60 -2722.55 L-769.80 -2757.13 M-790.60 -2722.55 L-750.31 -2720.37 M-883.99 -2507.33 L-780.05 -2562.44 M-780.05 -2562.44 L-737.59 -2633.01 M-737.59 -2633.01 L-737.59 -2690.66 M-737.59 -2690.66 L-758.40 -2725.23 M-737.59 -2690.66 L-716.79 -2725.23 M-737.59 -2633.01 L-686.66 -2660.01 M-686.66 -2660.01 L-665.85 -2694.59 M-686.66 -2660.01 L-646.36 -2657.83 M-780.05 -2562.44 L-697.82 -2557.98 M-697.82 -2557.98 L-646.88 -2584.99 M-646.88 -2584.99 L-626.08 -2619.56 M-646.88 -2584.99 L-606.59 -2582.80 M-697.82 -2557.98 L-650.10 -2525.63 M-650.10 -2525.63 L-609.81 -2523.45 M-650.10 -2525.63 L-633.16 -2489.01 M-360.89 -1599.80 L-360.89 -2089.80 M-360.89 -2089.80 L-537.72 -2383.70 M-537.72 -2383.70 L-749.85 -2496.17 M-749.85 -2496.17 L-917.68 -2487.07 M-917.68 -2487.07 L-1015.05 -2421.04 M-1015.05 -2421.04 L-1049.63 -2346.30 M-1049.63 -2346.30 L-1043.40 -2288.99 M-1043.40 -2288.99 L-1018.98 -2256.87 M-1043.40 -2288.99 L-1060.35 -2252.37 M-1049.63 -2346.30 L-1097.35 -2313.95 M-1097.35 -2313.95 L-1114.29 -2277.33 M-1097.35 -2313.95 L-1137.64 -2311.77 M-1015.05 -2421.04 L-1097.29 -2416.59 M-1097.29 -2416.59 L-1145.00 -2384.23 M-1145.00 -2384.23 L-1161.95 -2347.61 M-1145.00 -2384.23 L-1185.30 -2382.05 M-1097.29 -2416.59 L-1148.22 -2443.59 M-1148.22 -2443.59 L-1188.51 -2441.40 M-1148.22 -2443.59 L-1169.02 -2478.17 M-917.68 -2487.07 L-1021.62 -2542.18 M-1021.62 -2542.18 L-1103.86 -2537.72 M-1103.86 -2537.72 L-1151.57 -2505.37 M-1151.57 -2505.37 L-1168.51 -2468.74 M-1151.57 -2505.37 L-1191.86 -2503.18 M-1103.86 -2537.72 L-1154.79 -2564.72 M-1154.79 -2564.72 L-1195.08 -2562.54 M-1154.79 -2564.72 L-1175.59 -2599.30 M-1021.62 -2542.18 L-1064.08 -2612.74 M-1064.08 -2612.74 L-1115.01 -2639.74 M-1115.01 -2639.74 L-1155.31 -2637.56 M-1115.01 -2639.74 L-1135.82 -2674.32 M-1064.08 -2612.74 L-1064.08 -2670.39 M-1064.08 -2670.39 L-1084.88 -2704.97 M-1064.08 -2670.39 L-1043.28 -2704.97 M-749.85 -2496.17 L-836.50 -2640.18 M-836.50 -2640.18 L-940.45 -2695.29 M-940.45 -2695.29 L-1022.68 -2690.83 M-1022.68 -2690.83 L-1070.40 -2658.48 M-1070.40 -2658.48 L-1087.34 -2621.85 M-1070.40 -2658.48 L-1110.69 -2656.29 M-1022.68 -2690.83 L-1073.61 -2717.83 M-1073.61 -2717.83 L-1113.91 -2715.65 M-1073.61 -2717.83 L-1094.42 -2752.41 M-940.45 -2695.29 L-982.91 -2765.85 M-982.91 -2765.85 L-1033.84 -2792.86 M-1033.84 -2792.86 L-1074.13 -2790.67 M-1033.84 -2792.86 L-1054.64 -2827.43 M-982.91 -2765.85 L-982.91 -2823.50 M-982.91 -2823.50 L-1003.71 -2858.08 M-982.91 -2823.50 L-962.10 -2858.08 M-836.50 -2640.18 L-836.50 -2757.83 M-836.50 -2757.83 L-878.96 -2828.39 M-878.96 -2828.39 L-929.89 -2855.40 M-929.89 -2855.40 L-970.19 -2853.21 M-929.89 -2855.40 L-950.70 -2889.97 M-878.96 -2828.39 L-878.96 -2886.04 M-878.96 -2886.04 L-899.77 -2920.62 M-878.96 -2886.04 L-858.16 -2920.62 M-836.50 -2757.83 L-794.04 -2828.39 M-794.04 -2828.39 L-794.04 -2886.04 M-794.04 -2886.04 L-814.85 -2920.62 M-794.04 -2886.04 L-773.24 -2920.62 M-794.04 -2828.39 L-743.11 -2855.40 M-743.11 -2855.40 L-722.31 -2889.97 M-743.11 -2855.40 L-702.82 -2853.21 M-537.72 -2383.70 L-537.72 -2623.80 M-537.72 -2623.80 L-624.37 -2767.81 M-624.37 -2767.81 L-728.32 -2822.92 M-728.32 -2822.92 L-810.55 -2818.46 M-810.55 -2818.46 L-858.26 -2786.11 M-858.26 -2786.11 L-875.21 -2749.49 M-858.26 -2786.11 L-898.56 -2783.93 M-810.55 -2818.46 L-861.48 -2845.47 M-861.48 -2845.47 L-901.78 -2843.28 M-861.48 -2845.47 L-882.29 -2880.04 M-728.32 -2822.92 L-770.77 -2893.49 M-770.77 -2893.49 L-821.71 -2920.49 M-821.71 -2920.49 L-862.00 -2918.31 M-821.71 -2920.49 L-842.51 -2955.07 M-770.77 -2893.49 L-770.77 -2951.14 M-770.77 -2951.14 L-791.58 -2985.71 M-770.77 -2951.14 L-749.97 -2985.71 M-624.37 -2767.81 L-624.37 -2885.46 M-624.37 -2885.46 L-666.83 -2956.03 M-666.83 -2956.03 L-717.76 -2983.03 M-717.76 -2983.03 L-758.06 -2980.85 M-717.76 -2983.03 L-738.57 -3017.61 M-666.83 -2956.03 L-666.83 -3013.68 M-666.83 -3013.68 L-687.63 -3048.25 M-666.83 -3013.68 L-646.03 -3048.25 M-624.37 -2885.46 L-581.91 -2956.03 M-581.91 -2956.03 L-581.91 -3013.68 M-581.91 -3013.68 L-602.72 -3048.25 M-581.91 -3013.68 L-561.11 -3048.25 M-581.91 -2956.03 L-530.98 -2983.03 M-530.98 -2983.03 L-510.18 -3017.61 M-530.98 -2983.03 L-490.69 -2980.85 M-537.72 -2623.80 L-451.07 -2767.81 M-451.07 -2767.81 L-451.07 -2885.46 M-451.07 -2885.46 L-493.53 -2956.03 M-493.53 -2956.03 L-544.46 -2983.03 M-544.46 -2983.03 L-584.76 -2980.85 M-544.46 -2983.03 L-565.27 -3017.61 M-493.53 -2956.03 L-493.53 -3013.68 M-493.53 -3013.68 L-514.34 -3048.25 M-493.53 -3013.68 L-472.73 -3048.25 M-451.07 -2885.46 L-408.62 -2956.03 M-408.62 -2956.03 L-408.62 -3013.68 M-408.62 -3013.68 L-429.42 -3048.25 M-408.62 -3013.68 L-387.81 -3048.25 M-408.62 -2956.03 L-357.68 -2983.03 M-357.68 -2983.03 L-336.88 -3017.61 M-357.68 -2983.03 L-317.39 -2980.85 M-451.07 -2767.81 L-347.13 -2822.92 M-347.13 -2822.92 L-304.67 -2893.49 M-304.67 -2893.49 L-304.67 -2951.14 M-304.67 -2951.14 L-325.48 -2985.71 M-304.67 -2951.14 L-283.87 -2985.71 M-304.67 -2893.49 L-253.74 -2920.49 M-253.74 -2920.49 L-232.93 -2955.07 M-253.74 -2920.49 L-213.44 -2918.31 M-347.13 -2822.92 L-264.90 -2818.46 M-264.90 -2818.46 L-213.96 -2845.47 M-213.96 -2845.47 L-193.16 -2880.04 M-213.96 -2845.47 L-173.67 -2843.28 M-264.90 -2818.46 L-217.18 -2786.11 M-217.18 -2786.11 L-176.89 -2783.93 M-217.18 -2786.11 L-200.24 -2749.49 M-360.89 -2089.80 L-184.05 -2383.70 M-184.05 -2383.70 L-184.05 -2623.80 M-184.05 -2623.80 L-270.70 -2767.81 M-270.70 -2767.81 L-374.65 -2822.92 M-374.65 -2822.92 L-456.88 -2818.46 M-456.88 -2818.46 L-504.59 -2786.11 M-504.59 -2786.11 L-521.54 -2749.49 M-504.59 -2786.11 L-544.89 -2783.93 M-456.88 -2818.46 L-507.81 -2845.47 M-507.81 -2845.47 L-548.11 -2843.28 M-507.81 -2845.47 L-528.62 -2880.04 M-374.65 -2822.92 L-417.10 -2893.49 M-417.10 -2893.49 L-468.04 -2920.49 M-468.04 -2920.49 L-508.33 -2918.31 M-468.04 -2920.49 L-488.84 -2955.07 M-417.10 -2893.49 L-417.10 -2951.14 M-417.10 -2951.14 L-437.91 -2985.71 M-417.10 -2951.14 L-396.30 -2985.71 M-270.70 -2767.81 L-270.70 -2885.46 M-270.70 -2885.46 L-313.16 -2956.03 M-313.16 -2956.03 L-364.09 -2983.03 M-364.09 -2983.03 L-404.39 -2980.85 M-364.09 -2983.03 L-384.90 -3017.61 M-313.16 -2956.03 L-313.16 -3013.68 M-313.16 -3013.68 L-333.96 -3048.25 M-313.16 -3013.68 L-292.36 -3048.25 M-270.70 -2885.46 L-228.24 -2956.03 M-228.24 -2956.03 L-228.24 -3013.68 M-228.24 -3013.68 L-249.05 -3048.25 M-228.24 -3013.68 L-207.44 -3048.25 M-228.24 -2956.03 L-177.31 -2983.03 M-177.31 -2983.03 L-156.51 -3017.61 M-177.31 -2983.03 L-137.02 -2980.85 M-184.05 -2623.80 L-97.40 -2767.81 M-97.40 -2767.81 L-97.40 -2885.46 M-97.40 -2885.46 L-139.86 -2956.03 M-139.86 -2956.03 L-190.79 -2983.03 M-190.79 -2983.03 L-231.09 -2980.85 M-190.79 -2983.03 L-211.60 -3017.61 M-139.86 -2956.03 L-139.86 -3013.68 M-139.86 -3013.68 L-160.67 -3048.25 M-139.86 -3013.68 L-119.06 -3048.25 M-97.40 -2885.46 L-54.95 -2956.03 M-54.95 -2956.03 L-54.95 -3013.68 M-54.95 -3013.68 L-75.75 -3048.25 M-54.95 -3013.68 L-34.14 -3048.25 M-54.95 -2956.03 L-4.01 -2983.03 M-4.01 -2983.03 L16.79 -3017.61 M-4.01 -2983.03 L36.28 -2980.85 M-97.40 -2767.81 L6.54 -2822.92 M6.54 -2822.92 L49.00 -2893.49 M49.00 -2893.49 L49.00 -2951.14 M49.00 -2951.14 L28.19 -2985.71 M49.00 -2951.14 L69.80 -2985.71 M49.00 -2893.49 L99.93 -2920.49 M99.93 -2920.49 L120.74 -2955.07 M99.93 -2920.49 L140.23 -2918.31 M6.54 -2822.92 L88.77 -2818.46 M88.77 -2818.46 L139.71 -2845.47 M139.71 -2845.47 L160.51 -2880.04 M139.71 -2845.47 L180.00 -2843.28 M88.77 -2818.46 L136.49 -2786.11 M136.49 -2786.11 L176.78 -2783.93 M136.49 -2786.11 L153.43 -2749.49 M-184.05 -2383.70 L28.08 -2496.17 M28.08 -2496.17 L114.73 -2640.18 M114.73 -2640.18 L114.73 -2757.83 M114.73 -2757.83 L72.27 -2828.39 M72.27 -2828.39 L21.34 -2855.40 M21.34 -2855.40 L-18.96 -2853.21 M21.34 -2855.40 L0.53 -2889.97 M72.27 -2828.39 L72.27 -2886.04 M72.27 -2886.04 L51.47 -2920.62 M72.27 -2886.04 L93.07 -2920.62 M114.73 -2757.83 L157.19 -2828.39 M157.19 -2828.39 L157.19 -2886.04 M157.19 -2886.04 L136.38 -2920.62 M157.19 -2886.04 L177.99 -2920.62 M157.19 -2828.39 L208.12 -2855.40 M208.12 -2855.40 L228.92 -2889.97 M208.12 -2855.40 L248.41 -2853.21 M114.73 -2640.18 L218.67 -2695.29 M218.67 -2695.29 L261.13 -2765.85 M261.13 -2765.85 L261.13 -2823.50 M261.13 -2823.50 L240.33 -2858.08 M261.13 -2823.50 L281.93 -2858.08 M261.13 -2765.85 L312.06 -2792.86 M312.06 -2792.86 L332.87 -2827.43 M312.06 -2792.86 L352.36 -2790.67 M218.67 -2695.29 L300.91 -2690.83 M300.91 -2690.83 L351.84 -2717.83 M351.84 -2717.83 L372.64 -2752.41 M351.84 -2717.83 L392.13 -2715.65 M300.91 -2690.83 L348.62 -2658.48 M348.62 -2658.48 L388.91 -2656.29 M348.62 -2658.48 L365.56 -2621.85 M28.08 -2496.17 L195.90 -2487.07 M195.90 -2487.07 L299.85 -2542.18 M299.85 -2542.18 L342.30 -2612.74 M342.30 -2612.74 L342.30 -2670.39 M342.30 -2670.39 L321.50 -2704.97 M342.30 -2670.39 L363.11 -2704.97 M342.30 -2612.74 L393.24 -2639.74 M393.24 -2639.74 L414.04 -2674.32 M393.24 -2639.74 L433.53 -2637.56 M299.85 -2542.18 L382.08 -2537.72 M382.08 -2537.72 L433.01 -2564.72 M433.01 -2564.72 L453.82 -2599.30 M433.01 -2564.72 L473.31 -2562.54 M382.08 -2537.72 L429.79 -2505.37 M429.79 -2505.37 L470.09 -2503.18 M429.79 -2505.37 L446.74 -2468.74 M195.90 -2487.07 L293.28 -2421.04 M293.28 -2421.04 L375.51 -2416.59 M375.51 -2416.59 L426.45 -2443.59 M426.45 -2443.59 L447.25 -2478.17 M426.45 -2443.59 L466.74 -2441.40 M375.51 -2416.59 L423.23 -2384.23 M423.23 -2384.23 L463.52 -2382.05 M423.23 -2384.23 L440.17 -2347.61 M293.28 -2421.04 L327.86 -2346.30 M327.86 -2346.30 L375.57 -2313.95 M375.57 -2313.95 L415.87 -2311.77 M375.57 -2313.95 L392.52 -2277.33 M327.86 -2346.30 L321.63 -2288.99 M321.63 -2288.99 L338.57 -2252.37 M321.63 -2288.99 L297.20 -2256.87 M0.00 -1000.00 L360.89 -1599.80 M360.89 -1599.80 L360.89 -2089.80 M360.89 -2089.80 L184.05 -2383.70 M184.05 -2383.70 L-28.08 -2496.17 M-28.08 -2496.17 L-195.90 -2487.07 M-195.90 -2487.07 L-293.28 -2421.04 M-293.28 -2421.04 L-327.86 -2346.30 M-327.86 -2346.30 L-321.63 -2288.99 M-321.63 -2288.99 L-297.20 -2256.87 M-321.63 -2288.99 L-338.57 -2252.37 M-327.86 -2346.30 L-375.57 -2313.95 M-375.57 -2313.95 L-392.52 -2277.33 M-375.57 -2313.95 L-415.87 -2311.77 M-293.28 -2421.04 L-375.51 -2416.59 M-375.51 -2416.59 L-423.23 -2384.23 M-423.23 -2384.23 L-440.17 -2347.61 M-423.23 -2384.23 L-463.52 -2382.05 M-375.51 -2416.59 L-426.45 -2443.59 M-426.45 -2443.59 L-466.74 -2441.40 M-426.45 -2443.59 L-447.25 -2478.17 M-195.90 -2487.07 L-299.85 -2542.18 M-299.85 -2542.18 L-382.08 -2537.72 M-382.08 -2537.72 L-429.79 -2505.37 M-429.79 -2505.37 L-446.74 -2468.74 M-429.79 -2505.37 L-470.09 -2503.18 M-382.08 -2537.72 L-433.01 -2564.72 M-433.01 -2564.72 L-473.31 -2562.54 M-433.01 -2564.72 L-453.82 -2599.30 M-299.85 -2542.18 L-342.30 -2612.74 M-342.30 -2612.74 L-393.24 -2639.74 M-393.24 -2639.74 L-433.53 -2637.56 M-393.24 -2639.74 L-414.04 -2674.32 M-342.30 -2612.74 L-342.30 -2670.39 M-342.30 -2670.39 L-363.11 -2704.97 M-342.30 -2670.39 L-321.50 -2704.97 M-28.08 -2496.17 L-114.73 -2640.18 M-114.73 -2640.18 L-218.67 -2695.29 M-218.67 -2695.29 L-300.91 -2690.83 M-300.91 -2690.83 L-348.62 -2658.48 M-348.62 -2658.48 L-365.56 -2621.85 M-348.62 -2658.48 L-388.91 -2656.29 M-300.91 -2690.83 L-351.84 -2717.83 M-351.84 -2717.83 L-392.13 -2715.65 M-351.84 -2717.83 L-372.64 -2752.41 M-218.67 -2695.29 L-261.13 -2765.85 M-261.13 -2765.85 L-312.06 -2792.86 M-312.06 -2792.86 L-352.36 -2790.67 M-312.06 -2792.86 L-332.87 -2827.43 M-261.13 -2765.85 L-261.13 -2823.50 M-261.13 -2823.50 L-281.93 -2858.08 M-261.13 -2823.50 L-240.33 -2858.08 M-114.73 -2640.18 L-114.73 -2757.83 M-114.73 -2757.83 L-157.19 -2828.39 M-157.19 -2828.39 L-208.12 -2855.40 M-208.12 -2855.40 L-248.41 -2853.21 M-208.12 -2855.40 L-228.92 -2889.97 M-157.19 -2828.39 L-157.19 -2886.04 M-157.19 -2886.04 L-177.99 -2920.62 M-157.19 -2886.04 L-136.38 -2920.62 M-114.73 -2757.83 L-72.27 -2828.39 M-72.27 -2828.39 L-72.27 -2886.04 M-72.27 -2886.04 L-93.07 -2920.62 M-72.27 -2886.04 L-51.47 -2920.62 M-72.27 -2828.39 L-21.34 -2855.40 M-21.34 -2855.40 L-0.53 -2889.97 M-21.34 -2855.40 L18.96 -2853.21 M184.05 -2383.70 L184.05 -2623.80 M184.05 -2623.80 L97.40 -2767.81 M97.40 -2767.81 L-6.54 -2822.92 M-6.54 -2822.92 L-88.77 -2818.46 M-88.77 -2818.46 L-136.49 -2786.11 M-136.49 -2786.11 L-153.43 -2749.49 M-136.49 -2786.11 L-176.78 -2783.93 M-88.77 -2818.46 L-139.71 -2845.47 M-139.71 -2845.47 L-180.00 -2843.28 M-139.71 -2845.47 L-160.51 -2880.04 M-6.54 -2822.92 L-49.00 -2893.49 M-49.00 -2893.49 L-99.93 -2920.49 M-99.93 -2920.49 L-140.23 -2918.31 M-99.93 -2920.49 L-120.74 -2955.07 M-49.00 -2893.49 L-49.00 -2951.14 M-49.00 -2951.14 L-69.80 -2985.71 M-49.00 -2951.14 L-28.19 -2985.71 M97.40 -2767.81 L97.40 -2885.46 M97.40 -2885.46 L54.95 -2956.03 M54.95 -2956.03 L4.01 -2983.03 M4.01 -2983.03 L-36.28 -2980.85 M4.01 -2983.03 L-16.79 -3017.61 M54.95 -2956.03 L54.95 -3013.68 M54.95 -3013.68 L34.14 -3048.25 M54.95 -3013.68 L75.75 -3048.25 M97.40 -2885.46 L139.86 -2956.03 M139.86 -2956.03 L139.86 -3013.68 M139.86 -3013.68 L119.06 -3048.25 M139.86 -3013.68 L160.67 -3048.25 M139.86 -2956.03 L190.79 -2983.03 M190.79 -2983.03 L211.60 -3017.61 M190.79 -2983.03 L231.09 -2980.85 M184.05 -2623.80 L270.70 -2767.81 M270.70 -2767.81 L270.70 -2885.46 M270.70 -2885.46 L228.24 -2956.03 M228.24 -2956.03 L177.31 -2983.03 M177.31 -2983.03 L137.02 -2980.85 M177.31 -2983.03 L156.51 -3017.61 M228.24 -2956.03 L228.24 -3013.68 M228.24 -3013.68 L207.44 -3048.25 M228.24 -3013.68 L249.05 -3048.25 M270.70 -2885.46 L313.16 -2956.03 M313.16 -2956.03 L313.16 -3013.68 M313.16 -3013.68 L292.36 -3048.25 M313.16 -3013.68 L333.96 -3048.25 M313.16 -2956.03 L364.09 -2983.03 M364.09 -2983.03 L384.90 -3017.61 M364.09 -2983.03 L404.39 -2980.85 M270.70 -2767.81 L374.65 -2822.92 M374.65 -2822.92 L417.10 -2893.49 M417.10 -2893.49 L417.10 -2951.14 M417.10 -2951.14 L396.30 -2985.71 M417.10 -2951.14 L437.91 -2985.71 M417.10 -2893.49 L468.04 -2920.49 M468.04 -2920.49 L488.84 -2955.07 M468.04 -2920.49 L508.33 -2918.31 M374.65 -2822.92 L456.88 -2818.46 M456.88 -2818.46 L507.81 -2845.47 M507.81 -2845.47 L528.62 -2880.04 M507.81 -2845.47 L548.11 -2843.28 M456.88 -2818.46 L504.59 -2786.11 M504.59 -2786.11 L544.89 -2783.93 M504.59 -2786.11 L521.54 -2749.49 M360.89 -2089.80 L537.72 -2383.70 M537.72 -2383.70 L537.72 -2623.80 M537.72 -2623.80 L451.07 -2767.81 M451.07 -2767.81 L347.13 -2822.92 M347.13 -2822.92 L264.90 -2818.46 M264.90 -2818.46 L217.18 -2786.11 M217.18 -2786.11 L200.24 -2749.49 M217.18 -2786.11 L176.89 -2783.93 M264.90 -2818.46 L213.96 -2845.47 M213.96 -2845.47 L173.67 -2843.28 M213.96 -2845.47 L193.16 -2880.04 M347.13 -2822.92 L304.67 -2893.49 M304.67 -2893.49 L253.74 -2920.49 M253.74 -2920.49 L213.44 -2918.31 M253.74 -2920.49 L232.93 -2955.07 M304.67 -2893.49 L304.67 -2951.14 M304.67 -2951.14 L283.87 -2985.71 M304.67 -2951.14 L325.48 -2985.71 M451.07 -2767.81 L451.07 -2885.46 M451.07 -2885.46 L408.62 -2956.03 M408.62 -2956.03 L357.68 -2983.03 M357.68 -2983.03 L317.39 -2980.85 M357.68 -2983.03 L336.88 -3017.61 M408.62 -2956.03 L408.62 -3013.68 M408.62 -3013.68 L387.81 -3048.25 M408.62 -3013.68 L429.42 -3048.25 M451.07 -2885.46 L493.53 -2956.03 M493.53 -2956.03 L493.53 -3013.68 M493.53 -3013.68 L472.73 -3048.25 M493.53 -3013.68 L514.34 -3048.25 M493.53 -2956.03 L544.46 -2983.03 M544.46 -2983.03 L565.27 -3017.61 M544.46 -2983.03 L584.76 -2980.85 M537.72 -2623.80 L624.37 -2767.81 M624.37 -2767.81 L624.37 -2885.46 M624.37 -2885.46 L581.91 -2956.03 M581.91 -2956.03 L530.98 -2983.03 M530.98 -2983.03 L490.69 -2980.85 M530.98 -2983.03 L510.18 -3017.61 M581.91 -2956.03 L581.91 -3013.68 M581.91 -3013.68 L561.11 -3048.25 M581.91 -3013.68 L602.72 -3048.25 M624.37 -2885.46 L666.83 -2956.03 M666.83 -2956.03 L666.83 -3013.68 M666.83 -3013.68 L646.03 -3048.25 M666.83 -3013.68 L687.63 -3048.25 M666.83 -2956.03 L717.76 -2983.03 M717.76 -2983.03 L738.57 -3017.61 M717.76 -2983.03 L758.06 -2980.85 M624.37 -2767.81 L728.32 -2822.92 M728.32 -2822.92 L770.77 -2893.49 M770.77 -2893.49 L770.77 -2951.14 M770.77 -2951.14 L749.97 -2985.71 M770.77 -2951.14 L791.58 -2985.71 M770.77 -2893.49 L821.71 -2920.49 M821.71 -2920.49 L842.51 -2955.07 M821.71 -2920.49 L862.00 -2918.31 M728.32 -2822.92 L810.55 -2818.46 M810.55 -2818.46 L861.48 -2845.47 M861.48 -2845.47 L882.29 -2880.04 M861.48 -2845.47 L901.78 -2843.28 M810.55 -2818.46 L858.26 -2786.11 M858.26 -2786.11 L898.56 -2783.93 M858.26 -2786.11 L875.21 -2749.49 M537.72 -2383.70 L749.85 -2496.17 M749.85 -2496.17 L836.50 -2640.18 M836.50 -2640.18 L836.50 -2757.83 M836.50 -2757.83 L794.04 -2828.39 M794.04 -2828.39 L743.11 -2855.40 M743.11 -2855.40 L702.82 -2853.21 M743.11 -2855.40 L722.31 -2889.97 M794.04 -2828.39 L794.04 -2886.04 M794.04 -2886.04 L773.24 -2920.62 M794.04 -2886.04 L814.85 -2920.62 M836.50 -2757.83 L878.96 -2828.39 M878.96 -2828.39 L878.96 -2886.04 M878.96 -2886.04 L858.16 -2920.62 M878.96 -2886.04 L899.77 -2920.62 M878.96 -2828.39 L929.89 -2855.40 M929.89 -2855.40 L950.70 -2889.97 M929.89 -2855.40 L970.19 -2853.21 M836.50 -2640.18 L940.45 -2695.29 M940.45 -2695.29 L982.91 -2765.85 M982.91 -2765.85 L982.91 -2823.50 M982.91 -2823.50 L962.10 -2858.08 M982.91 -2823.50 L1003.71 -2858.08 M982.91 -2765.85 L1033.84 -2792.86 M1033.84 -2792.86 L1054.64 -2827.43 M1033.84 -2792.86 L1074.13 -2790.67 M940.45 -2695.29 L1022.68 -2690.83 M1022.68 -2690.83 L1073.61 -2717.83 M1073.61 -2717.83 L1094.42 -2752.41 M1073.61 -2717.83 L1113.91 -2715.65 M1022.68 -2690.83 L1070.40 -2658.48 M1070.40 -2658.48 L1110.69 -2656.29 M1070.40 -2658.48 L1087.34 -2621.85 M749.85 -2496.17 L917.68 -2487.07 M917.68 -2487.07 L1021.62 -2542.18 M1021.62 -2542.18 L1064.08 -2612.74 M1064.08 -2612.74 L1064.08 -2670.39 M1064.08 -2670.39 L1043.28 -2704.97 M1064.08 -2670.39 L1084.88 -2704.97 M1064.08 -2612.74 L1115.01 -2639.74 M1115.01 -2639.74 L1135.82 -2674.32 M1115.01 -2639.74 L1155.31 -2637.56 M1021.62 -2542.18 L1103.86 -2537.72 M1103.86 -2537.72 L1154.79 -2564.72 M1154.79 -2564.72 L1175.59 -2599.30 M1154.79 -2564.72 L1195.08 -2562.54 M1103.86 -2537.72 L1151.57 -2505.37 M1151.57 -2505.37 L1191.86 -2503.18 M1151.57 -2505.37 L1168.51 -2468.74 M917.68 -2487.07 L1015.05 -2421.04 M1015.05 -2421.04 L1097.29 -2416.59 M1097.29 -2416.59 L1148.22 -2443.59 M1148.22 -2443.59 L1169.02 -2478.17 M1148.22 -2443.59 L1188.51 -2441.40 M1097.29 -2416.59 L1145.00 -2384.23 M1145.00 -2384.23 L1185.30 -2382.05 M1145.00 -2384.23 L1161.95 -2347.61 M1015.05 -2421.04 L1049.63 -2346.30 M1049.63 -2346.30 L1097.35 -2313.95 M1097.35 -2313.95 L1137.64 -2311.77 M1097.35 -2313.95 L1114.29 -2277.33 M1049.63 -2346.30 L1043.40 -2288.99 M1043.40 -2288.99 L1060.35 -2252.37 M1043.40 -2288.99 L1018.98 -2256.87 M360.89 -1599.80 L793.81 -1829.32 M793.81 -1829.32 L970.64 -2123.22 M970.64 -2123.22 L970.64 -2363.32 M970.64 -2363.32 L883.99 -2507.33 M883.99 -2507.33 L780.05 -2562.44 M780.05 -2562.44 L697.82 -2557.98 M697.82 -2557.98 L650.10 -2525.63 M650.10 -2525.63 L633.16 -2489.01 M650.10 -2525.63 L609.81 -2523.45 M697.82 -2557.98 L646.88 -2584.99 M646.88 -2584.99 L606.59 -2582.80 M646.88 -2584.99 L626.08 -2619.56 M780.05 -2562.44 L737.59 -2633.01 M737.59 -2633.01 L686.66 -2660.01 M686.66 -2660.01 L646.36 -2657.83 M686.66 -2660.01 L665.85 -2694.59 M737.59 -2633.01 L737.59 -2690.66 M737.59 -2690.66 L716.79 -2725.23 M737.59 -2690.66 L758.40 -2725.23 M883.99 -2507.33 L883.99 -2624.98 M883.99 -2624.98 L841.54 -2695.55 M841.54 -2695.55 L790.60 -2722.55 M790.60 -2722.55 L750.31 -2720.37 M790.60 -2722.55 L769.80 -2757.13 M841.54 -2695.55 L841.54 -2753.20 M841.54 -2753.20 L820.73 -2787.77 M841.54 -2753.20 L862.34 -2787.77 M883.99 -2624.98 L926.45 -2695.55 M926.45 -2695.55 L926.45 -2753.20 M926.45 -2753.20 L905.65 -2787.77 M926.45 -2753.20 L947.26 -2787.77 M926.45 -2695.55 L977.39 -2722.55 M977.39 -2722.55 L998.19 -2757.13 M977.39 -2722.55 L1017.68 -2720.37 M970.64 -2363.32 L1057.29 -2507.33 M1057.29 -2507.33 L1057.29 -2624.98 M1057.29 -2624.98 L1014.83 -2695.55 M1014.83 -2695.55 L963.90 -2722.55 M963.90 -2722.55 L923.61 -2720.37 M963.90 -2722.55 L943.10 -2757.13 M1014.83 -2695.55 L1014.83 -2753.20 M1014.83 -2753.20 L994.03 -2787.77 M1014.83 -2753.20 L1035.64 -2787.77 M1057.29 -2624.98 L1099.75 -2695.55 M1099.75 -2695.55 L1099.75 -2753.20 M1099.75 -2753.20 L1078.95 -2787.77 M1099.75 -2753.20 L1120.56 -2787.77 M1099.75 -2695.55 L1150.68 -2722.55 M1150.68 -2722.55 L1171.49 -2757.13 M1150.68 -2722.55 L1190.98 -2720.37 M1057.29 -2507.33 L1161.24 -2562.44 M1161.24 -2562.44 L1203.70 -2633.01 M1203.70 -2633.01 L1203.70 -2690.66 M1203.70 -2690.66 L1182.89 -2725.23 M1203.70 -2690.66 L1224.50 -2725.23 M1203.70 -2633.01 L1254.63 -2660.01 M1254.63 -2660.01 L1275.43 -2694.59 M1254.63 -2660.01 L1294.92 -2657.83 M1161.24 -2562.44 L1243.47 -2557.98 M1243.47 -2557.98 L1294.40 -2584.99 M1294.40 -2584.99 L1315.21 -2619.56 M1294.40 -2584.99 L1334.70 -2582.80 M1243.47 -2557.98 L1291.19 -2525.63 M1291.19 -2525.63 L1331.48 -2523.45 M1291.19 -2525.63 L1308.13 -2489.01 M970.64 -2123.22 L1182.77 -2235.69 M1182.77 -2235.69 L1269.42 -2379.70 M1269.42 -2379.70 L1269.42 -2497.35 M1269.42 -2497.35 L1226.97 -2567.91 M1226.97 -2567.91 L1176.03 -2594.92 M1176.03 -2594.92 L1135.74 -2592.73 M1176.03 -2594.92 L1155.23 -2629.49 M1226.97 -2567.91 L1226.97 -2625.56 M1226.97 -2625.56 L1206.16 -2660.14 M1226.97 -2625.56 L1247.77 -2660.14 M1269.42 -2497.35 L1311.88 -2567.91 M1311.88 -2567.91 L1311.88 -2625.56 M1311.88 -2625.56 L1291.08 -2660.14 M1311.88 -2625.56 L1332.69 -2660.14 M1311.88 -2567.91 L1362.81 -2594.92 M1362.81 -2594.92 L1383.62 -2629.49 M1362.81 -2594.92 L1403.11 -2592.73 M1269.42 -2379.70 L1373.37 -2434.81 M1373.37 -2434.81 L1415.83 -2505.37 M1415.83 -2505.37 L1415.83 -2563.02 M1415.83 -2563.02 L1395.02 -2597.60 M1415.83 -2563.02 L1436.63 -2597.60 M1415.83 -2505.37 L1466.76 -2532.38 M1466.76 -2532.38 L1487.56 -2566.95 M1466.76 -2532.38 L1507.05 -2530.19 M1373.37 -2434.81 L1455.60 -2430.35 M1455.60 -2430.35 L1506.53 -2457.35 M1506.53 -2457.35 L1527.34 -2491.93 M1506.53 -2457.35 L1546.83 -2455.17 M1455.60 -2430.35 L1503.32 -2398.00 M1503.32 -2398.00 L1543.61 -2395.81 M1503.32 -2398.00 L1520.26 -2361.37 M1182.77 -2235.69 L1350.60 -2226.59 M1350.60 -2226.59 L1454.54 -2281.70 M1454.54 -2281.70 L1497.00 -2352.26 M1497.00 -2352.26 L1497.00 -2409.91 M1497.00 -2409.91 L1476.20 -2444.49 M1497.00 -2409.91 L1517.81 -2444.49 M1497.00 -2352.26 L1547.93 -2379.26 M1547.93 -2379.26 L1568.74 -2413.84 M1547.93 -2379.26 L1588.23 -2377.08 M1454.54 -2281.70 L1536.78 -2277.24 M1536.78 -2277.24 L1587.71 -2304.24 M1587.71 -2304.24 L1608.51 -2338.82 M1587.71 -2304.24 L1628.00 -2302.06 M1536.78 -2277.24 L1584.49 -2244.89 M1584.49 -2244.89 L1624.79 -2242.70 M1584.49 -2244.89 L1601.43 -2208.26 M1350.60 -2226.59 L1447.98 -2160.56 M1447.98 -2160.56 L1530.21 -2156.11 M1530.21 -2156.11 L1581.14 -2183.11 M1581.14 -2183.11 L1601.95 -2217.69 M1581.14 -2183.11 L1621.44 -2180.92 M1530.21 -2156.11 L1577.92 -2123.75 M1577.92 -2123.75 L1618.22 -2121.57 M1577.92 -2123.75 L1594.87 -2087.13 M1447.98 -2160.56 L1482.55 -2085.82 M1482.55 -2085.82 L1530.27 -2053.47 M1530.27 -2053.47 L1570.56 -2051.29 M1530.27 -2053.47 L1547.21 -2016.85 M1482.55 -2085.82 L1476.32 -2028.51 M1476.32 -2028.51 L1493.27 -1991.89 M1476.32 -2028.51 L1451.90 -1996.39 M793.81 -1829.32 L1136.31 -1810.75 M1136.31 -1810.75 L1348.44 -1923.22 M1348.44 -1923.22 L1435.09 -2067.23 M1435.09 -2067.23 L1435.09 -2184.88 M1435.09 -2184.88 L1392.63 -2255.44 M1392.63 -2255.44 L1341.70 -2282.45 M1341.70 -2282.45 L1301.40 -2280.26 M1341.70 -2282.45 L1320.89 -2317.02 M1392.63 -2255.44 L1392.63 -2313.09 M1392.63 -2313.09 L1371.82 -2347.67 M1392.63 -2313.09 L1413.43 -2347.67 M1435.09 -2184.88 L1477.54 -2255.44 M1477.54 -2255.44 L1477.54 -2313.09 M1477.54 -2313.09 L1456.74 -2347.67 M1477.54 -2313.09 L1498.35 -2347.67 M1477.54 -2255.44 L1528.48 -2282.45 M1528.48 -2282.45 L1549.28 -2317.02 M1528.48 -2282.45 L1568.77 -2280.26 M1435.09 -2067.23 L1539.03 -2122.34 M1539.03 -2122.34 L1581.49 -2192.90 M1581.49 -2192.90 L1581.49 -2250.55 M1581.49 -2250.55 L1560.68 -2285.13 M1581.49 -2250.55 L1602.29 -2285.13 M1581.49 -2192.90 L1632.42 -2219.90 M1632.42 -2219.90 L1653.23 -2254.48 M1632.42 -2219.90 L1672.72 -2217.72 M1539.03 -2122.34 L1621.26 -2117.88 M1621.26 -2117.88 L1672.20 -2144.88 M1672.20 -2144.88 L1693.00 -2179.46 M1672.20 -2144.88 L1712.49 -2142.69 M1621.26 -2117.88 L1668.98 -2085.53 M1668.98 -2085.53 L1709.27 -2083.34 M1668.98 -2085.53 L1685.92 -2048.90 M1348.44 -1923.22 L1516.26 -1914.12 M1516.26 -1914.12 L1620.20 -1969.22 M1620.20 -1969.22 L1662.66 -2039.79 M1662.66 -2039.79 L1662.66 -2097.44 M1662.66 -2097.44 L1641.86 -2132.02 M1662.66 -2097.44 L1683.47 -2132.02 M1662.66 -2039.79 L1713.60 -2066.79 M1713.60 -2066.79 L1734.40 -2101.37 M1713.60 -2066.79 L1753.89 -2064.61 M1620.20 -1969.22 L1702.44 -1964.77 M1702.44 -1964.77 L1753.37 -1991.77 M1753.37 -1991.77 L1774.18 -2026.35 M1753.37 -1991.77 L1793.67 -1989.58 M1702.44 -1964.77 L1750.15 -1932.41 M1750.15 -1932.41 L1790.45 -1930.23 M1750.15 -1932.41 L1767.10 -1895.79 M1516.26 -1914.12 L1613.64 -1848.09 M1613.64 -1848.09 L1695.87 -1843.63 M1695.87 -1843.63 L1746.80 -1870.64 M1746.80 -1870.64 L1767.61 -1905.21 M1746.80 -1870.64 L1787.10 -1868.45 M1695.87 -1843.63 L1743.59 -1811.28 M1743.59 -1811.28 L1783.88 -1809.10 M1743.59 -1811.28 L1760.53 -1774.66 M1613.64 -1848.09 L1648.22 -1773.35 M1648.22 -1773.35 L1695.93 -1741.00 M1695.93 -1741.00 L1736.23 -1738.81 M1695.93 -1741.00 L1712.88 -1704.38 M1648.22 -1773.35 L1641.98 -1716.04 M1641.98 -1716.04 L1658.93 -1679.42 M1641.98 -1716.04 L1617.56 -1683.92 M1136.31 -1810.75 L1335.03 -1676.01 M1335.03 -1676.01 L1502.86 -1666.91 M1502.86 -1666.91 L1606.80 -1722.02 M1606.80 -1722.02 L1649.26 -1792.58 M1649.26 -1792.58 L1649.26 -1850.23 M1649.26 -1850.23 L1628.46 -1884.81 M1649.26 -1850.23 L1670.06 -1884.81 M1649.26 -1792.58 L1700.19 -1819.59 M1700.19 -1819.59 L1721.00 -1854.16 M1700.19 -1819.59 L1740.49 -1817.40 M1606.80 -1722.02 L1689.04 -1717.56 M1689.04 -1717.56 L1739.97 -1744.56 M1739.97 -1744.56 L1760.77 -1779.14 M1739.97 -1744.56 L1780.26 -1742.38 M1689.04 -1717.56 L1736.75 -1685.21 M1736.75 -1685.21 L1777.04 -1683.02 M1736.75 -1685.21 L1753.69 -1648.58 M1502.86 -1666.91 L1600.23 -1600.89 M1600.23 -1600.89 L1682.47 -1596.43 M1682.47 -1596.43 L1733.40 -1623.43 M1733.40 -1623.43 L1754.20 -1658.01 M1733.40 -1623.43 L1773.69 -1621.25 M1682.47 -1596.43 L1730.18 -1564.08 M1730.18 -1564.08 L1770.48 -1561.89 M1730.18 -1564.08 L1747.13 -1527.45 M1600.23 -1600.89 L1634.81 -1526.14 M1634.81 -1526.14 L1682.53 -1493.79 M1682.53 -1493.79 L1722.82 -1491.61 M1682.53 -1493.79 L1699.47 -1457.17 M1634.81 -1526.14 L1628.58 -1468.83 M1628.58 -1468.83 L1645.52 -1432.21 M1628.58 -1468.83 L1604.16 -1436.71 M1335.03 -1676.01 L1405.60 -1523.47 M1405.60 -1523.47 L1502.98 -1457.45 M1502.98 -1457.45 L1585.21 -1452.99 M1585.21 -1452.99 L1636.15 -1479.99 M1636.15 -1479.99 L1656.95 -1514.57 M1636.15 -1479.99 L1676.44 -1477.81 M1585.21 -1452.99 L1632.93 -1420.64 M1632.93 -1420.64 L1673.22 -1418.46 M1632.93 -1420.64 L1649.87 -1384.02 M1502.98 -1457.45 L1537.56 -1382.71 M1537.56 -1382.71 L1585.28 -1350.36 M1585.28 -1350.36 L1625.57 -1348.17 M1585.28 -1350.36 L1602.22 -1313.73 M1537.56 -1382.71 L1531.33 -1325.40 M1531.33 -1325.40 L1548.27 -1288.77 M1531.33 -1325.40 L1506.91 -1293.27 M1405.60 -1523.47 L1392.88 -1406.51 M1392.88 -1406.51 L1427.46 -1331.77 M1427.46 -1331.77 L1475.18 -1299.42 M1475.18 -1299.42 L1515.47 -1297.24 M1475.18 -1299.42 L1492.12 -1262.80 M1427.46 -1331.77 L1421.23 -1274.46 M1421.23 -1274.46 L1438.18 -1237.84 M1421.23 -1274.46 L1396.81 -1242.34 M1392.88 -1406.51 L1343.05 -1340.95 M1343.05 -1340.95 L1336.81 -1283.64 M1336.81 -1283.64 L1353.76 -1247.02 M1336.81 -1283.64 L1312.39 -1251.52 M1343.05 -1340.95 L1289.49 -1319.61 M1289.49 -1319.61 L1265.07 -1287.49 M1289.49 -1319.61 L1249.67 -1326.14" />
</svg>

